<svg width="50" height="50" viewBox="0 0 50 50" fill="none" xmlns="http://www.w3.org/2000/svg">
<path d="M23.0344 37.5735C20.7472 38.6192 18.2457 39.1111 15.7328 39.0094C14.0195 39.0995 12.3069 38.8186 10.7121 38.186C9.11732 37.5533 7.67789 36.5839 6.49222 35.3438C4.15381 32.6432 2.94764 29.1445 3.12504 25.5766C2.95695 21.702 4.31577 17.9162 6.90941 15.0328C8.16303 13.6972 9.68797 12.6453 11.3818 11.9478C13.0756 11.2503 14.8991 10.9234 16.7297 10.9891C18.875 10.9318 21.0125 11.2714 23.0344 11.9906V17.8672C21.2834 16.7719 19.2526 16.2075 17.1875 16.2422C16.1051 16.2007 15.0264 16.3935 14.0254 16.8074C13.0243 17.2214 12.1245 17.8467 11.3875 18.6406C9.84264 20.4419 9.05184 22.7695 9.17972 25.1391C9.06143 27.416 9.80569 29.6538 11.2641 31.4063C11.97 32.1836 12.8388 32.7957 13.8083 33.199C14.7779 33.6022 15.8245 33.7866 16.8735 33.7391C19.0508 33.7577 21.1882 33.1544 23.0344 32V37.5735Z" fill="white"/>
<path d="M26.7375 23.1703V19.5078H30.4V23.1703H34.0625V26.8313H30.4V30.4922H26.7375V26.8313H23.0781V23.1688L26.7375 23.1703Z" fill="white"/>
<path d="M39.5515 23.1703V19.5078H43.214V23.1703H46.8749V26.8313H43.214V30.4922H39.5515V26.8313H35.8921V23.1688L39.5515 23.1703Z" fill="white"/>
</svg>
