<svg width="51" height="51" viewBox="0 0 51 51" fill="none" xmlns="http://www.w3.org/2000/svg">
<path fill-rule="evenodd" clip-rule="evenodd" d="M28.3933 6.11591C26.5782 4.30076 23.6351 4.30076 21.8201 6.11591L20.2593 7.67663L23.9028 11.32C24.2868 11.2174 24.6902 11.1626 25.1067 11.1626C27.6737 11.1626 29.7546 13.2436 29.7546 15.8106C29.7546 16.227 29.6998 16.6305 29.5973 17.0145L34.3608 21.7779C34.7447 21.6754 35.1482 21.6206 35.5646 21.6206C38.1317 21.6206 40.2126 23.7015 40.2126 26.2685C40.2126 28.8356 38.1317 30.9165 35.5646 30.9165C32.9975 30.9165 30.9166 28.8356 30.9166 26.2685C30.9166 25.8521 30.9715 25.4486 31.074 25.0647L27.4307 21.4212V32.7004C28.8199 33.504 29.7546 35.006 29.7546 36.7265C29.7546 39.2936 27.6737 41.3745 25.1067 41.3745C22.5396 41.3745 20.4587 39.2936 20.4587 36.7265C20.4587 35.006 21.3934 33.504 22.7827 32.7004V19.8368C21.3934 19.0331 20.4587 17.531 20.4587 15.8106C20.4587 15.3942 20.5135 14.9906 20.616 14.6067L16.9727 10.9632L6.11603 21.82C4.30088 23.635 4.30088 26.5781 6.11603 28.3931L21.8201 44.0973C23.6351 45.9123 26.5782 45.9123 28.3933 44.0973L44.0974 28.3931C45.9124 26.5781 45.9124 23.635 44.0974 21.82L28.3933 6.11591ZM18.5334 2.82928C22.1638 -0.801012 28.0495 -0.801002 31.6798 2.8293L47.384 18.5333C51.0143 22.1637 51.0143 28.0494 47.384 31.6797L31.6798 47.3838C28.0495 51.0141 22.1638 51.0141 18.5334 47.3838L2.8294 31.6797C-0.80089 28.0494 -0.80088 22.1637 2.82942 18.5333L18.5334 2.82928Z" fill="white"/>
</svg>
