<svg width="51" height="51" viewBox="0 0 51 51" fill="none" xmlns="http://www.w3.org/2000/svg">
<path d="M17.5508 20.4195C16.9244 19.3964 16.6436 18.203 17.1222 17.119C17.6006 16.0107 18.6724 15.1216 19.7442 14.2934C22.7281 12.0888 26.4054 10.469 29.3239 8.2282C30.9396 6.99797 32.275 5.52429 32.7365 3.83124C33.1159 2.58907 32.9347 1.31031 32.5886 0.0800781C34.1384 1.3833 34.6496 3.24671 34.2043 4.92752C33.7263 6.81519 32.3078 8.48368 30.6427 9.92076C29.3073 11.078 27.7736 12.101 26.1744 13.0512C24.3112 14.1595 22.4812 15.3529 21.3107 16.9119C20.3209 18.1784 20.09 19.7374 20.7662 21.1137C21.8712 23.4763 24.443 25.2302 25.8448 27.4589C24.2945 26.4479 22.7779 25.4006 21.3594 24.2924C19.8761 23.1232 18.4743 21.8811 17.5508 20.4195ZM25.9599 18.5681C25.6798 20.5047 27.0479 22.3315 28.6807 23.7688C29.4718 24.4142 30.1479 25.2059 30.1807 26.1072C30.2139 27.3125 29.291 28.4334 28.103 29.2247C28.3837 29.2007 28.5815 29.0178 28.8124 28.9204C30.5932 28.08 32.3076 27.0204 33.1815 25.5714C33.7586 24.5848 33.6268 23.4154 32.8686 22.5018C31.9779 21.4301 30.8075 20.4801 30.1151 19.3111C29.7353 18.6534 29.6035 17.8862 29.9169 17.192C30.3294 16.2543 31.2196 15.4869 32.1596 14.817C34.7481 13.0026 37.8808 11.7111 40.8819 10.2985C37.0894 11.1023 33.3467 12.2107 30.1479 13.9525C28.1197 15.0729 26.2404 16.6317 25.9599 18.5681ZM43.9822 27.727C45.7795 27.8002 47.5432 28.7743 47.8733 30.1142C48.1868 31.2712 47.4285 32.4159 46.4552 33.2927C44.8557 34.7054 42.6955 35.7165 40.5197 36.5813C40.3049 36.6782 40.1236 36.8002 39.9587 36.9343C42.8279 36.3983 45.6965 35.5949 48.0217 34.2185C49.3073 33.4268 50.4451 32.379 50.6927 31.1246C50.9236 30.0409 50.3138 28.9203 49.2253 28.2018C47.9059 27.3124 46.0433 26.9838 44.2951 27.1545C43.2892 27.2518 42.1847 27.4102 41.4923 28.0313C42.3171 27.9099 43.1243 27.666 43.9822 27.727ZM8.18556 31.2099C10.3452 31.6362 12.5713 31.7581 14.7808 31.8678C16.7593 31.9651 18.7383 31.9897 20.7335 31.9774C25.8777 31.9168 31.055 31.6607 36.1003 30.8326C36.5782 30.7475 37.1061 30.6866 37.5353 30.4674C38.3761 30.0652 39.2989 29.7485 40.2062 29.4319C36.1003 29.9191 31.9781 30.3335 27.8233 30.5282C23.6187 30.7231 19.3809 30.8449 15.1602 30.6379C13.9566 30.5528 12.7197 30.5038 11.5986 30.1626C11.3345 30.0775 10.9716 29.9073 11.1034 29.6511C11.351 29.3223 11.8457 29.1642 12.2743 28.9936C14.0884 28.3602 16.0668 28.0072 17.9961 27.5931C14.6816 27.5563 11.3837 28.1774 8.35048 29.1397C7.67423 29.3834 6.91584 29.5782 6.37193 29.9923C6.15706 30.1625 6.15706 30.4554 6.40465 30.6011C6.89942 30.93 7.55858 31.0761 8.18556 31.2099ZM34.8971 34.5595C32.0114 34.937 29.109 35.2906 26.1904 35.3999C22.9917 35.5582 19.793 35.424 16.6274 35.1806C16.0175 35.1196 15.4072 35.0467 14.8633 34.8398C14.583 34.7179 14.3028 34.5231 14.3194 34.267C14.3521 33.8652 14.8135 33.5853 15.1436 33.2928C14.1216 33.5608 13.0991 33.8407 12.2417 34.3406C11.8785 34.5476 11.5161 34.8762 11.6148 35.2415C11.7638 35.6678 12.3243 35.9235 12.8189 36.1183C14.0387 36.5814 15.4074 36.7881 16.7433 36.9709C20.1227 37.373 23.569 37.3853 26.9655 37.2143C30.5609 37.0074 34.1384 36.5691 37.6175 35.8139C36.6282 35.4853 35.6882 35.1073 34.8971 34.5595ZM16.7759 38.7738C15.8526 38.9685 14.9126 39.2001 14.1543 39.6502C13.7744 39.8695 13.4781 40.2475 13.6597 40.6006C13.8906 41.0511 14.4678 41.3195 15.0113 41.5502C16.4297 42.123 18.0289 42.3906 19.5952 42.598C23.1407 43.0118 26.7843 42.951 30.313 42.4884C32.4068 42.1959 34.501 41.7818 36.4464 41.1366C35.1769 40.7468 33.9405 40.3082 32.7535 39.7968C30.6924 40.0647 28.6144 40.3451 26.5039 40.4424C23.7178 40.6007 20.8979 40.4302 18.1113 40.1745C17.4516 40.0648 16.6274 40.0162 16.1822 39.5898C15.9518 39.2363 16.4792 38.9805 16.7759 38.7738ZM39.3323 46.6046C41.6404 46.252 43.9656 45.8493 46.076 45.0581C46.7352 44.7775 47.5432 44.473 47.7581 43.8888C47.8733 43.3286 47.0818 43.0361 46.5212 42.8046C46.8674 43.0975 47.0983 43.5235 46.7517 43.8643C46.1745 44.437 45.1858 44.656 44.3116 44.8753C41.5748 45.4477 38.7384 45.6792 35.9191 45.9107C28.4498 46.4099 20.9308 46.5318 13.4619 46.069C10.9556 45.8739 8.39936 45.667 6.0087 45.0094C5.62984 44.8875 5.05267 44.7656 5.05267 44.3879C5.20064 44.0597 5.62984 43.8765 6.0087 43.7181C7.72351 43.0728 9.63622 42.7194 11.5488 42.6343C10.9887 42.3905 10.329 42.3664 9.68603 42.3786C8.08634 42.4151 6.52003 42.7194 5.00339 43.0975C3.70069 43.4501 2.36514 43.8402 1.32606 44.5467C0.913949 44.8143 0.535087 45.3258 0.963226 45.6914C1.62292 46.2152 2.64545 46.349 3.55167 46.5073C8.63025 47.153 13.7744 47.5178 18.9195 47.652C25.7457 47.7986 32.6213 47.5792 39.3323 46.6046ZM46.0925 47.2626C42.9925 47.9933 39.7775 48.395 36.5784 48.724C31.055 49.2354 25.4816 49.3938 19.9249 49.2722C16.545 49.1749 13.1651 49.0043 9.834 48.5898C10.6089 48.9797 11.5655 49.1013 12.4561 49.2842C16.1993 49.8689 20.0406 49.9785 23.8497 50.0636C29.4386 50.1368 35.0284 49.9785 40.5357 49.3329C43.1413 48.9924 45.7628 48.578 48.1037 47.6766C49.3244 47.2017 50.5613 46.4706 50.7747 45.4113C49.5385 46.3854 47.7581 46.8362 46.0925 47.2626Z" fill="white"/>
</svg>
