<svg width="51" height="51" viewBox="0 0 51 51" fill="none" xmlns="http://www.w3.org/2000/svg">
<path fill-rule="evenodd" clip-rule="evenodd" d="M0.10834 0.0585938C0.0525672 0.0667151 0.0566768 0.133936 0.0606885 0.201255C0.0606885 16.8028 0.0606885 33.4018 0.0606885 50.003C16.6325 50.1141 33.4078 50.0189 50.0586 50.0506C50.0586 33.3863 50.0586 16.7228 50.0586 0.0585938C33.4091 0.0585938 16.7579 0.0585938 0.10834 0.0585938ZM25.4395 44.253C24.2828 45.4192 22.4573 46.106 20.2117 46.106C16.5284 46.106 14.4834 44.3115 13.178 41.829C14.4346 41.0267 15.7187 40.2515 17.0277 39.5008C17.5616 40.9941 19.3649 42.673 21.3998 41.6394C22.6897 40.9839 22.5408 38.9966 22.5408 36.8396C22.5408 32.3608 22.5408 27.194 22.5408 23.1535C22.5367 23.0862 22.5327 23.019 22.588 23.0108C24.1249 23.0108 25.6616 23.0108 27.1981 23.0108C27.1981 26.6104 27.1981 30.6823 27.1981 34.5107C27.1981 38.6788 27.496 42.1807 25.4395 44.253ZM46.066 40.119C45.8044 44.0215 42.6176 46.0938 38.3195 46.106C34.106 46.1182 31.4091 44.2457 29.7644 41.3539C30.9469 40.5401 32.2867 39.8845 33.5193 39.1208C34.5056 40.663 36.2137 42.1453 38.7472 41.9243C40.3255 41.7868 42.1577 40.5002 41.1234 38.5504C40.6217 37.6052 39.4095 37.125 38.3195 36.6497C34.8604 35.1405 30.8021 33.7562 31.1902 28.3334C31.3201 26.5219 32.1542 25.2488 33.2341 24.3417C34.3409 23.4121 35.8232 22.7891 37.7967 22.7261C41.3807 22.6113 43.3469 24.2056 44.688 26.433C43.5467 27.3029 42.2893 28.058 41.0284 28.8088C40.6146 27.5373 38.617 26.2982 36.9411 27.0506C36.179 27.3923 35.4941 28.397 35.8957 29.6165C36.2538 30.7041 37.7146 31.2994 38.8897 31.8028C42.4467 33.3253 46.4217 34.8133 46.066 40.119Z" fill="white"/>
</svg>
