<svg width="50" height="50" viewBox="0 0 50 50" fill="none" xmlns="http://www.w3.org/2000/svg">
<g clip-path="url(#clip0_53_9)">
<path d="M25.4004 0.319268C26.1828 -0.106423 27.1503 -0.106423 27.9327 0.319268L48.7532 11.6474C49.5252 12.0674 49.9999 12.8383 49.9999 13.6719V36.3281C49.9999 37.1618 49.5252 37.9324 48.7532 38.3524L27.9327 49.6806C27.1503 50.1065 26.1828 50.1065 25.4004 49.6806L20.1953 46.8487C18.9965 46.1965 18.5916 44.7612 19.2909 43.6431C19.9902 42.5252 21.5288 42.1474 22.7276 42.7996L26.6666 44.9427L44.9743 34.9818V15.018L26.6666 5.05712L8.35888 15.018V34.9818L12.1006 37.0178C13.2538 37.3628 14.6781 37.4471 15.6821 37.0334C16.1478 36.8415 16.5685 36.529 16.9014 35.9709C17.2518 35.3834 17.5725 34.4056 17.5725 32.8124V16.4062C17.5725 15.1118 18.6976 14.0625 20.0854 14.0625C21.4731 14.0625 22.5982 15.1118 22.5982 16.4062V32.8124C22.5982 34.9693 22.1661 36.7862 21.2931 38.2496C20.4027 39.7424 19.1293 40.7374 17.713 41.3212C15.0115 42.4343 12.0284 41.9781 10.2016 41.3659C10.0571 41.3174 9.91767 41.2568 9.78506 41.1846L4.57994 38.3524C3.80794 37.9324 3.33325 37.1618 3.33325 36.3281V13.6719C3.33325 12.8383 3.80794 12.0674 4.57994 11.6474L25.4004 0.319268ZM27.6122 16.5101C28.9418 15.0338 31.0184 14.0625 33.8362 14.0625C36.4512 14.0625 38.443 14.8986 39.7909 16.2285C40.744 17.1693 40.6995 18.6526 39.6907 19.5418C38.6822 20.431 37.0918 20.3892 36.1386 19.4485C35.8451 19.1589 35.2299 18.75 33.8362 18.75C32.354 18.75 31.7432 19.211 31.4604 19.525C31.0953 19.9304 30.9742 20.4432 30.9742 20.7031C30.9742 20.963 31.0953 21.4758 31.4604 21.8812C31.7432 22.1952 32.354 22.6562 33.8362 22.6562C34.0841 22.6562 34.3236 22.6897 34.5501 22.7522C36.6257 23.0312 38.2074 23.8995 39.292 25.1038C40.5393 26.4888 40.9558 28.1244 40.9558 29.2968C40.9558 30.4692 40.5393 32.105 39.292 33.4899C37.9625 34.9662 35.8859 35.9374 33.0683 35.9374C30.4532 35.9374 28.4613 35.1012 27.1135 33.7715C26.1602 32.8306 26.205 31.3471 27.2135 30.4581C28.2221 29.569 29.8125 29.6108 30.7658 30.5515C31.0592 30.841 31.6745 31.25 33.0683 31.25C34.5505 31.25 35.1612 30.7889 35.444 30.4749C35.8089 30.0695 35.9302 29.5567 35.9302 29.2968C35.9302 29.037 35.8089 28.5241 35.444 28.1188C35.1612 27.8047 34.5505 27.3437 33.0683 27.3437C32.8202 27.3437 32.5805 27.3102 32.3542 27.2477C30.2786 26.9687 28.6969 26.1005 27.6122 24.8961C26.3649 23.5111 25.9486 21.8755 25.9486 20.7031C25.9486 19.5307 26.3649 17.8951 27.6122 16.5101Z" fill="white"/>
</g>
<defs>
<clipPath id="clip0_53_9">
<rect width="50" height="50" fill="white"/>
</clipPath>
</defs>
</svg>
