<svg width="51" height="51" viewBox="0 0 51 51" fill="none" xmlns="http://www.w3.org/2000/svg">
<path d="M40.0634 15.7603C40.0462 16.0186 39.9221 16.247 39.7344 16.4054L39.7327 16.4071C39.5071 16.6454 39.2057 16.8121 38.8647 16.8705L38.8561 16.8721C38.8078 16.8788 38.751 16.8838 38.6942 16.8838C38.6924 16.8838 38.689 16.8838 38.6873 16.8838C38.1499 16.8838 37.6884 16.5688 37.492 16.117L37.4886 16.1087C37.4369 15.7403 38.0569 15.4619 38.6959 15.3752C39.3349 15.2885 40.0117 15.3935 40.0634 15.7603ZM22.9957 16.6171C22.7873 17.1355 22.2758 17.4973 21.6764 17.4973C21.6695 17.4973 21.6643 17.4973 21.6575 17.4973H21.6592C21.5972 17.4973 21.5386 17.4923 21.4783 17.4856H21.4852C21.0357 17.4073 20.6534 17.1672 20.4002 16.8321L20.3968 16.8271C20.2555 16.6704 20.1694 16.4621 20.1694 16.237V16.2354C20.1901 16.107 20.2641 15.997 20.3675 15.927L20.3692 15.9253C20.631 15.7853 20.9444 15.7036 21.2786 15.7036C21.4215 15.7036 21.561 15.7186 21.6954 15.7469L21.6833 15.7453C22.3636 15.8369 23.0663 16.1487 22.9991 16.6171H22.9957ZM41.9717 29.358L41.7874 29.1346L41.7116 29.0429C42.4987 27.6326 42.9602 25.954 42.9602 24.1736C42.9602 23.3601 42.8638 22.57 42.6812 21.8098L42.695 21.8798C42.5744 21.1247 42.5038 20.2528 42.5038 19.366C42.5038 19.3543 42.5038 19.3426 42.5038 19.331C42.5434 18.4958 42.6347 17.7156 42.776 16.9505L42.7587 17.0605C42.912 16.287 42.9998 15.3969 42.9998 14.4867C42.9998 14.4017 42.9998 14.3183 42.9981 14.235V14.2483C43.0188 14.1666 43.0308 14.0749 43.0308 13.9782C43.0308 13.9332 43.0274 13.8899 43.024 13.8465V13.8515C42.3351 11.2177 41.0416 8.93556 39.2901 7.06185L39.3021 7.07519C37.7331 5.29483 35.8042 3.85954 33.6186 2.86935L33.5153 2.82767C34.714 2.57929 36.0918 2.43759 37.5041 2.43759C37.6333 2.43759 37.7624 2.43926 37.8916 2.44093H37.8726C37.9501 2.43926 38.0397 2.43759 38.131 2.43759C42.2265 2.43759 45.8743 4.2863 48.2338 7.16854L48.2545 7.19521C48.3027 7.25522 48.3509 7.32357 48.3923 7.39525L48.3974 7.40359C49.9544 10.2275 47.8033 20.4762 41.9699 29.3613L41.9717 29.358ZM41.4791 14.7484C41.4515 15.5069 41.3689 16.2253 41.238 16.9272L41.2517 16.8355C41.1174 17.5439 41.021 18.3874 40.9813 19.2443L40.9796 19.286C40.9796 19.3143 40.9796 19.346 40.9796 19.3793C40.9796 20.3245 41.052 21.253 41.1932 22.1599L41.1794 22.0582C41.3258 22.6866 41.4102 23.4068 41.4102 24.1486C41.4102 25.4205 41.1622 26.6374 40.7092 27.7527L40.7333 27.686C40.6024 27.4676 40.4664 27.2042 40.3475 26.9308L40.3286 26.8825C40.2149 26.6174 39.9686 26.189 39.6294 25.5989C38.3049 23.2984 35.2014 17.9124 36.7893 15.7152C37.6057 14.585 39.6759 14.5367 41.4774 14.7501L41.4791 14.7484ZM40.2545 34.0606C40.1667 32.3286 40.8332 32.1469 41.5394 31.9552C41.637 31.9296 41.734 31.9013 41.8304 31.8701C41.9165 31.9435 42.0113 32.0152 42.1094 32.0785L42.118 32.0835C43.1859 32.5386 44.4293 32.802 45.7383 32.802C46.7578 32.802 47.7378 32.642 48.6541 32.3452L48.5886 32.3636C47.9962 32.852 47.321 33.2704 46.5908 33.5938L46.5374 33.6155C45.4283 34.0556 44.1417 34.3306 42.7949 34.3723H42.7777C42.5727 34.4023 42.3368 34.4207 42.0974 34.4207C41.4326 34.4207 40.7988 34.2873 40.2253 34.0472L40.2563 34.0589L40.2545 34.0606ZM38.3377 37.4379C38.3015 37.8063 38.2602 38.2214 38.205 38.6798L37.8916 39.5934C37.8675 39.66 37.8537 39.7367 37.852 39.8167C37.8537 39.8617 37.8537 39.9134 37.8537 39.9651C37.8537 40.5569 37.7624 41.1303 37.5936 41.6688L37.604 41.6271C37.4042 42.2756 37.2664 43.0274 37.2199 43.8025L37.2182 43.8292C37.1286 46.6364 34.8845 48.9086 32.0376 49.1536L32.0152 49.1553C28.7532 49.8321 28.1745 48.1201 27.6647 46.6098C27.6131 46.452 27.558 46.2947 27.4994 46.138C27.2238 45.0511 27.0654 43.8025 27.0654 42.5189C27.0654 41.9188 27.0998 41.327 27.167 40.7436L27.1601 40.8153C27.1705 40.6019 27.1756 40.3502 27.1756 40.0985C27.1756 38.3881 26.9104 36.7378 26.4161 35.1841L26.4488 35.3025C26.458 34.6913 26.4718 34.0723 26.4902 33.4455C26.4902 33.4405 26.4902 33.4321 26.4902 33.4255C26.4902 33.3488 26.4781 33.2754 26.4557 33.2054L26.4574 33.2104C26.4333 33.0437 26.4006 32.897 26.3575 32.7553L26.3627 32.777C26.1199 31.9085 25.5085 31.2083 24.7024 30.8366L24.6835 30.8283C24.3804 30.6816 24.0221 30.5949 23.6415 30.5949C23.4624 30.5949 23.2885 30.6132 23.1214 30.6499L23.1369 30.6466C23.3573 29.8631 23.5847 29.223 23.8465 28.5995L23.8017 28.7212L23.9154 28.4261C24.0428 28.0927 24.203 27.7477 24.3735 27.3826C25.3138 25.5089 25.8632 23.3068 25.8632 20.9796C25.8632 19.416 25.6152 17.909 25.1554 16.4921L25.1847 16.5971C24.8695 14.7501 23.2299 13.3581 21.2562 13.3581C20.9462 13.3581 20.643 13.3931 20.3537 13.4581L20.3813 13.4531C19.0103 13.6265 17.7703 14.0166 16.6422 14.59L16.7025 14.5617C16.5601 14.6317 16.4195 14.7039 16.2805 14.7784C16.4373 11.1993 17.8237 7.96036 20.0368 5.41819L20.0161 5.44153C20.2194 5.24315 20.4329 5.05478 20.6534 4.87808L20.6689 4.86641C20.7877 4.84307 20.8928 4.7964 20.9823 4.73139L20.9806 4.73305C22.5186 3.64283 24.4493 2.9877 26.5384 2.9877C26.7054 2.9877 26.8708 2.99104 27.0344 2.99937L27.012 2.99771C27.9179 3.01104 28.7928 3.07105 29.654 3.17774L29.5386 3.16607C33.0572 3.8212 36.0608 5.60489 38.205 8.10539L38.224 8.12873C39.5122 9.57735 40.5559 11.2744 41.2655 13.1264L41.3034 13.2414C40.8608 13.1264 40.3527 13.0597 39.8291 13.0597C38.1362 13.0597 36.6119 13.7532 35.5407 14.8617L35.5372 14.8651C33.4016 17.8207 36.7067 23.5585 38.2946 26.3157C38.5857 26.8208 38.8371 27.2576 38.9163 27.4426C39.3641 28.4445 39.9273 29.3063 40.6042 30.0715L40.5921 30.0581C40.7419 30.2398 40.8866 30.4149 40.9986 30.5682C40.1357 30.8083 38.5857 31.365 38.7269 34.1456C38.7011 34.4707 38.6356 35.0758 38.5478 35.8426C38.4548 36.291 38.379 36.8378 38.3359 37.3929L38.3325 37.4396L38.3377 37.4379ZM22.4893 27.9127L22.3756 28.2061C22.1397 28.7529 21.8951 29.448 21.6919 30.1598L21.6592 30.2948C20.1212 30.2732 18.7399 29.6364 17.7651 28.6262L17.7617 28.6228C16.6732 27.5109 16.005 26.0056 16.005 24.3486C16.005 24.0186 16.0308 23.6952 16.0825 23.3784L16.0773 23.4135C16.2444 22.2132 16.3408 20.8279 16.3408 19.4193C16.3408 18.5825 16.3064 17.754 16.2409 16.9338L16.2478 17.0422C16.2375 16.8638 16.2271 16.7071 16.222 16.5838C17.6084 15.5652 19.3634 14.9501 21.2665 14.9501C21.4938 14.9501 21.7177 14.9584 21.9399 14.9751L21.9106 14.9734C22.8648 15.1885 23.583 15.9536 23.6966 16.8955L23.6984 16.9055C24.1083 18.1191 24.3442 19.516 24.3442 20.9646C24.3442 23.0751 23.843 25.0721 22.9509 26.8525L22.9871 26.7725C22.8062 27.1609 22.6357 27.5276 22.4893 27.9094V27.9127ZM17.9821 36.221C17.6291 36.1343 17.3191 36.0076 17.0366 35.8426L17.0521 35.8509C17.3483 35.7293 17.698 35.6276 18.0596 35.5626L18.0924 35.5576C20.8549 35.0074 21.2803 34.619 22.212 33.4738C22.4256 33.2121 22.6667 32.9137 23.0026 32.552C23.0714 32.4769 23.1266 32.3869 23.1593 32.2869L23.161 32.2819C23.5278 31.9668 23.7466 32.0535 24.1014 32.1952C24.4923 32.4036 24.7817 32.7553 24.8936 33.1737L24.8953 33.1854C24.9349 33.2938 24.9591 33.4171 24.9591 33.5471C24.9591 33.7555 24.8988 33.9506 24.7954 34.1156L24.7989 34.1106C23.688 35.5809 21.9124 36.5261 19.9094 36.5261C19.2204 36.5261 18.5574 36.4144 17.9391 36.2077L17.9821 36.221ZM5.05304 25.6239C3.93184 22.3149 3.01904 18.3891 2.47997 14.3483L2.4438 14.0166C2.33874 13.4798 2.28018 12.8613 2.28018 12.2312C2.28018 9.22062 3.63906 6.51841 5.79534 4.66804L5.80567 4.6597C9.75829 1.95416 16.222 3.53281 18.9518 4.38798L18.9311 4.40799C16.2874 7.52861 14.684 11.5628 14.684 15.957C14.684 16.107 14.6857 16.257 14.6892 16.4071V16.3854C14.6892 16.5571 14.7029 16.8005 14.7236 17.1339C14.7804 17.8173 14.8132 18.6142 14.8132 19.4193C14.8132 20.7563 14.7236 22.0732 14.5479 23.3651L14.5651 23.2134C14.5083 23.5568 14.4773 23.9536 14.4773 24.357C14.4773 26.4091 15.3074 28.2744 16.6629 29.653L16.6594 29.6497C16.8328 29.8253 17.0136 29.9903 17.2019 30.1448C16.4562 30.9183 14.8338 32.6286 13.1081 34.639C11.887 36.061 11.0431 35.7876 10.7658 35.6992C9.58606 35.0858 8.6612 34.1339 8.11696 32.9804L8.10146 32.9437C6.92343 30.8566 5.88662 28.4295 5.12193 25.8889L5.05476 25.6272L5.05304 25.6239ZM50.6553 31.5534C50.6226 31.4584 50.5813 31.3767 50.5313 31.3017L50.5348 31.3067C50.2351 30.7583 49.5083 30.5949 48.3664 30.8233C44.8082 31.5334 43.4304 31.0967 42.931 30.7833C45.7159 26.6958 47.9565 21.9615 49.3912 16.9038L49.4756 16.5554C50.0594 14.3666 51.1927 9.21562 49.7391 6.69845C49.6375 6.51174 49.529 6.35171 49.4084 6.20168L49.4136 6.20835C46.7217 2.94936 42.6141 0.880615 38.007 0.880615C37.8761 0.880615 37.7452 0.882282 37.616 0.885616H37.635C37.5626 0.883949 37.4782 0.883949 37.3921 0.883949C35.0808 0.883949 32.8574 1.25069 30.7821 1.92582L30.9284 1.88415C30.5599 1.81747 30.1896 1.76079 29.8176 1.71412C28.9771 1.55908 28.004 1.4624 27.0086 1.4474H26.9948C26.8518 1.44073 26.6848 1.43739 26.516 1.43739C24.2512 1.43739 22.1449 2.09419 20.3899 3.22275L20.4312 3.19775C18.5867 2.52928 10.1251 -0.229607 4.8877 3.36111C2.32324 5.4782 0.709473 8.60716 0.709473 12.1029C0.709473 12.778 0.769752 13.4398 0.885144 14.0833L0.874811 14.0149C1.45177 18.5125 2.38869 22.56 3.68556 26.4524L3.5495 25.979C4.39858 28.8395 5.44916 31.315 6.73914 33.6472L6.63409 33.4405C7.37983 35.0808 8.66981 36.381 10.2784 37.1495L10.3232 37.1695C10.6125 37.2512 10.9449 37.2996 11.2894 37.2996C12.5673 37.2996 13.6868 36.6478 14.3137 35.6676L14.3223 35.6526C16.0463 33.6455 17.7445 31.8485 18.5074 31.055C19.372 31.5201 20.3968 31.8068 21.4887 31.8401H21.499L21.5007 31.8485C21.3193 32.0574 21.1419 32.2697 20.9686 32.4853C20.2383 33.3821 20.0867 33.5672 17.7393 34.0356C17.0711 34.1689 15.2971 34.5223 15.2713 35.7259C15.2713 35.7326 15.2713 35.7393 15.2713 35.7476C15.2713 35.9926 15.3453 36.221 15.4728 36.4127L15.4693 36.4077C16.0067 37.0662 16.7628 37.5379 17.6291 37.7213L17.6549 37.7263C18.3421 37.943 19.1343 38.0681 19.9541 38.0681C21.8486 38.0681 23.5812 37.4046 24.9212 36.3044L24.9108 36.3127C24.8695 37.0095 24.8471 37.8263 24.8471 38.6482C24.8471 41.5704 25.1416 44.4277 25.7014 47.1915L25.6549 46.9132C26.3128 49.2019 28.438 50.8589 30.9663 50.8806H30.9698C31.6053 50.8756 32.2201 50.8039 32.8126 50.6739L32.7558 50.6839C36.0608 50.3989 38.6649 47.8417 38.8991 44.651L38.9008 44.631C39.2246 42.8173 39.7654 38.6415 40.0599 36.0877C40.0737 35.9793 40.1185 35.8826 40.1839 35.8026L40.1822 35.8043C40.1839 35.8026 40.3321 35.7059 41.1019 35.8676L41.1966 35.8826L41.7426 35.9293L41.7753 35.931C41.9389 35.9376 42.1318 35.9426 42.3247 35.9426C44.0883 35.9426 45.7727 35.6092 47.3107 35.0024L47.2229 35.0324C48.6093 34.4107 51.1083 32.882 50.6553 31.5534Z" fill="white"/>
</svg>
