<svg width="50" height="50" viewBox="0 0 50 50" fill="none" xmlns="http://www.w3.org/2000/svg">
<g clip-path="url(#clip0_55_16)">
<path fill-rule="evenodd" clip-rule="evenodd" d="M31.86 46.145C30.655 46.145 29.68 45.1652 29.68 43.9539C29.68 42.7426 30.655 41.7651 31.86 41.7651C33.065 41.7651 34.04 42.7426 34.04 43.9539C34.04 45.1652 33.065 46.145 31.86 46.145ZM25.18 50C37.875 50 37.0825 44.4666 37.0825 44.4666L37.0675 38.7341H24.955V37.0129H41.8775C41.8775 37.0129 50 37.9403 50 25.0659C50 12.1915 42.9125 12.6453 42.9125 12.6453H38.68V18.6218C38.68 18.6218 38.9075 25.7458 31.705 25.7458H19.69C19.69 25.7458 12.94 25.6387 12.94 32.3059V43.3276C12.94 43.3276 11.915 50 25.18 50ZM18.1425 3.85498C19.3475 3.85498 20.32 4.83484 20.32 6.04614C20.32 7.25744 19.3475 8.23486 18.1425 8.23486C16.9375 8.23486 15.9625 7.25744 15.9625 6.04614C15.9625 4.83484 16.9375 3.85498 18.1425 3.85498ZM24.82 0C12.1275 0 12.92 5.53345 12.92 5.53345L12.935 11.2659H25.0475V12.9871H8.12248C8.12248 12.9871 0 12.0597 0 24.9341C0 37.8085 7.09 37.3547 7.09 37.3547H11.32V31.3782C11.32 31.3782 11.0925 24.2542 18.2975 24.2542H30.31C30.31 24.2542 37.06 24.3613 37.06 17.6941V6.67236C37.06 6.67236 38.085 0 24.82 0Z" fill="white"/>
</g>
<defs>
<clipPath id="clip0_55_16">
<rect width="50" height="50" fill="white"/>
</clipPath>
</defs>
</svg>
