<svg width="50" height="50" viewBox="0 0 50 50" fill="none" xmlns="http://www.w3.org/2000/svg">
<g clip-path="url(#clip0_55_21)">
<path d="M25.0001 21.0625C25.7688 21.0625 26.5204 21.29 27.1601 21.7162C27.7998 22.1425 28.2992 22.7485 28.5952 23.458C28.8913 24.1674 28.9708 24.9486 28.8238 25.7031C28.6768 26.4577 28.3099 27.1519 27.7692 27.6984C27.2286 28.2448 26.5383 28.6191 25.7853 28.7741C25.0324 28.9291 24.2504 28.8579 23.5379 28.5694C22.8253 28.2809 22.214 27.7881 21.781 27.1529C21.3479 26.5177 21.1125 25.7687 21.1042 25C21.1015 24.4856 21.2001 23.9758 21.3944 23.4995C21.5887 23.0233 21.8749 22.59 22.2367 22.2243C22.5984 21.8587 23.0287 21.5679 23.5028 21.3686C23.977 21.1692 24.4857 21.0652 25.0001 21.0625ZM15.3542 41.6666C16.6667 42.4583 19.5209 41.25 22.8542 38.125C21.7401 36.8589 20.6902 35.5378 19.7084 34.1666C18.028 33.9784 16.359 33.7003 14.7084 33.3333C13.6459 37.7916 14.0417 40.8541 15.3542 41.6666ZM16.8334 29.7083L16.2292 28.6458C15.9937 29.231 15.792 29.8292 15.6251 30.4375C16.1876 30.5625 16.8126 30.6666 17.4584 30.7708L16.8334 29.7083ZM30.4584 28.125L32.1459 25L30.4584 21.875C29.8334 20.7708 29.1667 19.7916 28.5626 18.8125C27.4376 18.75 26.2501 18.75 25.0001 18.75C23.7501 18.75 22.5626 18.75 21.4376 18.75C20.8334 19.7291 20.1667 20.7083 19.5417 21.8125L17.8542 25L19.5417 28.125C20.1667 29.2291 20.8334 30.2083 21.4376 31.1875C22.5626 31.1875 23.7501 31.1875 25.0001 31.1875C26.2501 31.1875 27.4376 31.1875 28.5626 31.1875C29.1667 30.2083 29.8334 29.2291 30.4584 28.125ZM25.0001 14.125C24.6042 14.5833 24.1876 15.0625 23.7709 15.625H26.2292C25.8126 15.0625 25.3959 14.5833 25.0001 14.125ZM25.0001 35.875C25.3959 35.4166 25.8126 34.9375 26.2292 34.375H23.7709C24.1876 34.9375 24.6042 35.4166 25.0001 35.875ZM34.6251 8.3333C33.3334 7.54163 30.4584 8.74996 27.1459 11.875C28.26 13.141 29.3099 14.4621 30.2917 15.8333C31.9706 15.994 33.6396 16.2443 35.2917 16.5833C36.3542 12.125 35.9584 9.06246 34.6251 8.24996M33.1667 20.2083L33.7709 21.2708C34.0064 20.6856 34.2081 20.0874 34.3751 19.4791C33.8126 19.3541 33.1876 19.25 32.5417 19.1458L33.1667 20.2083ZM36.1876 5.62496C39.2501 7.37496 39.5834 11.9791 38.2709 17.3541C43.5626 18.9166 47.3751 21.5208 47.3751 25.0208C47.3751 28.5208 43.5626 31.125 38.2709 32.6875C39.5626 38.0625 39.2292 42.6666 36.1876 44.4166C33.1459 46.1666 29.0001 44.1666 25.0001 40.3541C21.0001 44.1666 16.8542 46.1666 13.7917 44.4166C10.7292 42.6666 10.4167 38.1666 11.7084 32.6875C6.41675 31.125 2.60425 28.5208 2.60425 25.0208C2.60425 21.5208 6.41675 18.8958 11.7084 17.3333C10.4167 11.9583 10.7501 7.35413 13.7917 5.60413C16.8334 3.85413 21.0001 5.85413 25.0001 9.66663C29.0001 5.85413 33.1459 3.85413 36.1876 5.60413M35.5834 25C36.307 26.5336 36.9468 28.1054 37.5001 29.7083C41.8751 28.3958 44.3334 26.5208 44.3334 25C44.3334 23.4791 41.8126 21.6041 37.5001 20.2916C36.9468 21.8946 36.307 23.4663 35.5834 25ZM14.4167 25C13.6932 23.4663 13.0534 21.8946 12.5001 20.2916C8.12508 21.6041 5.66675 23.4791 5.66675 25C5.66675 26.5208 8.18758 28.3958 12.5001 29.7083C13.0534 28.1054 13.6932 26.5336 14.4167 25ZM33.1667 29.7083L32.5417 30.7708C33.1876 30.7708 33.8126 30.5625 34.3751 30.4375C34.2081 29.8292 34.0064 29.231 33.7709 28.6458L33.1667 29.7083ZM27.0834 38.125C30.3959 41.25 33.3334 42.4583 34.5626 41.6666C35.7917 40.875 36.2917 37.875 35.2292 33.3333C33.5771 33.6723 31.9081 33.9226 30.2292 34.0833C29.2497 35.4829 28.1998 36.8319 27.0834 38.125ZM16.8334 20.2916L17.4584 19.2291C16.8126 19.2291 16.1876 19.4375 15.6251 19.5625C15.792 20.1708 15.9937 20.769 16.2292 21.3541L16.8334 20.2916ZM22.9167 11.875C19.5417 8.74996 16.6667 7.54163 15.3542 8.3333C14.0417 9.12496 13.6459 12.125 14.7084 16.6666C16.3605 16.3277 18.0296 16.0773 19.7084 15.9166C20.7082 14.5156 21.7791 13.1666 22.9167 11.875Z" fill="white"/>
</g>
<defs>
<clipPath id="clip0_55_21">
<rect width="50" height="50" fill="white"/>
</clipPath>
</defs>
</svg>
