<svg width="50" height="50" viewBox="0 0 50 50" fill="none" xmlns="http://www.w3.org/2000/svg">
<g clip-path="url(#clip0_55_45)">
<path d="M45.4594 2.59529C44.7594 4.27966 43.8641 5.86716 42.7906 7.33123C38.0875 2.63591 31.7141 -0.00158691 25.0656 -0.00158691C11.3125 -0.00158691 0 11.3109 0 25.064C0 31.925 2.81563 38.4922 7.7875 43.2203L8.70781 44.0422C13.2328 47.8515 18.9453 49.9343 24.8531 49.9422C37.9313 49.9422 48.9172 39.7047 49.8531 26.6672C50.5375 20.2781 48.6563 12.2062 45.4578 2.6031L45.4594 2.59529ZM11.3438 43.3672C10.9453 43.8718 10.3266 44.1562 9.68281 44.1562C8.49531 44.1562 7.54219 43.1953 7.53438 42.0156C7.53438 40.8359 8.51094 39.8672 9.68281 39.8672C11.4813 39.875 12.4828 41.9672 11.3438 43.3672ZM45.3609 35.864C39.1766 44.1 25.9594 41.325 17.4969 41.7234C17.4969 41.7234 15.9906 41.8125 14.4781 42.0578C14.4781 42.0578 15.0484 41.8218 15.7797 41.5375C21.7281 39.4703 24.5359 39.0719 28.15 37.2156C34.9531 33.7562 41.6828 26.189 43.0828 18.3187C40.4875 25.8953 32.6328 32.3968 25.4797 35.0422C20.5813 36.8484 11.7266 38.6062 11.7266 38.6062L11.3688 38.4187C5.33906 35.489 5.15938 22.4359 16.1125 18.2203C20.9063 16.3812 25.5031 17.3906 30.6797 16.1609C36.2141 14.8422 42.6188 10.6922 45.2219 5.27966C48.1359 13.939 51.6422 27.4906 45.3609 35.864Z" fill="white"/>
</g>
<defs>
<clipPath id="clip0_55_45">
<rect width="50" height="50" fill="white"/>
</clipPath>
</defs>
</svg>
