<svg width="50" height="50" viewBox="0 0 50 50" fill="none" xmlns="http://www.w3.org/2000/svg">
<g clip-path="url(#clip0_55_47)">
<path d="M25 0C11.2141 0 0 11.2141 0 25C0 38.7859 11.2141 50 25 50C38.7859 50 50 38.7859 50 25C50 11.2141 38.7859 0 25 0ZM25 2.38594C37.4922 2.38594 47.6141 12.5094 47.6141 25C47.6141 37.4906 37.4906 47.6141 25 47.6141C12.5078 47.6141 2.38594 37.4906 2.38594 25C2.38594 12.5094 12.5094 2.38594 25 2.38594ZM17.4391 12.2234C17.1453 12.2156 16.8531 12.2234 16.5516 12.2313C14.5094 12.3547 13.2813 13.3141 12.9391 15.3C12.7031 16.6922 12.7438 18.1063 12.6453 19.5063C12.6141 20.2313 12.5406 20.9563 12.4016 21.6625C12.125 22.9328 11.5813 23.3312 10.2875 23.3953C10.1141 23.4125 9.94375 23.4453 9.78125 23.4844V26.5281C12.125 26.6422 12.4438 27.4734 12.6297 29.9219C12.7047 30.8172 12.6063 31.7141 12.6625 32.6078C12.7047 33.4562 12.8172 34.2937 12.9875 35.1078C13.525 37.3453 15.7141 38.0938 18.3516 37.6453V34.9687C17.9266 34.9687 17.5531 34.9766 17.1953 34.9687C16.2906 34.9437 15.9578 34.7172 15.8766 33.8547C15.7531 32.7406 15.7875 31.6094 15.7219 30.4859C15.5828 28.3937 15.3547 26.3437 13.3141 25.0172C14.3641 24.2437 15.1281 23.3234 15.3641 22.1031C15.5344 21.2484 15.6406 20.3859 15.7063 19.5234C15.7719 18.6609 15.6672 17.7734 15.7391 16.9188C15.8594 15.5359 15.95 14.9672 17.6094 15.0234C17.8609 15.0234 18.1047 14.9906 18.3828 14.9672V12.2406C18.05 12.2406 17.7406 12.2328 17.4391 12.2234ZM33.2609 12.2484C32.6906 12.2313 32.1219 12.2734 31.5594 12.3719V15.0234C32.0734 15.0234 32.4719 15.0234 32.8609 15.0312C33.5469 15.0391 34.0672 15.3078 34.1312 16.0641C34.1953 16.7563 34.1953 17.4562 34.2609 18.1562C34.4 19.5562 34.4734 20.9625 34.7172 22.3391C34.9297 23.4703 35.7109 24.3156 36.6781 25.0156C34.9781 26.1547 34.4734 27.7906 34.3922 29.6297C34.3422 30.8812 34.3109 32.1531 34.2469 33.4219C34.1891 34.5781 33.7828 34.9516 32.6172 34.9766C32.2922 34.9938 31.975 35.0188 31.6172 35.0406V37.7594C32.2922 37.7594 32.9187 37.8016 33.5469 37.7594C35.4828 37.6453 36.6641 36.7016 37.0453 34.8141C37.2078 33.7813 37.3063 32.7312 37.3313 31.6812C37.3953 30.7203 37.3875 29.7516 37.4859 28.8C37.6312 27.3109 38.3172 26.6922 39.8047 26.5953C39.9438 26.5781 40.0813 26.5453 40.2219 26.5063V23.4547C39.9703 23.4219 39.7984 23.3969 39.6109 23.3906C38.4969 23.3406 37.9422 22.9656 37.6563 21.9094C37.4859 21.2328 37.3797 20.5406 37.3484 19.8406C37.2672 18.5547 37.275 17.2531 37.1938 15.9672C37.0234 13.4859 35.5313 12.3125 33.2609 12.2484ZM18.9047 23.2422C16.6672 23.2422 16.5047 26.5375 18.725 26.75H18.8484C19.8 26.8063 20.6156 26.0828 20.6719 25.1297V25.0344C20.6891 24.0656 19.9156 23.2594 18.9469 23.2422H18.9047ZM24.9672 23.2422C24.0406 23.2109 23.2594 23.9422 23.225 24.8719C23.225 24.9281 23.225 24.9766 23.2328 25.0344C23.2328 26.0844 23.95 26.7516 25.025 26.7516C26.0828 26.7516 26.75 26.0594 26.75 24.9766C26.7422 23.9266 26.0328 23.2344 24.9672 23.2438V23.2422ZM31.1359 23.2422C30.1609 23.225 29.3469 24 29.3125 24.9844C29.3125 25.9609 30.1016 26.7516 31.0875 26.7516H31.1047C31.9906 26.9063 32.8781 26.0516 32.9359 25.0266C32.9844 24.075 32.1219 23.2438 31.1359 23.2438V23.2422Z" fill="white"/>
</g>
<defs>
<clipPath id="clip0_55_47">
<rect width="50" height="50" fill="white"/>
</clipPath>
</defs>
</svg>
