<svg width="50" height="50" viewBox="0 0 50 50" fill="none" xmlns="http://www.w3.org/2000/svg">
<g clip-path="url(#clip0_55_51)">
<path d="M0 -4.53125C0 -7.55156 2.44844 -10 5.46875 -10H44.5312C47.5516 -10 50 -7.55156 50 -4.53125V1.71875C50 3.01316 48.9506 4.0625 47.6562 4.0625C46.3619 4.0625 45.3125 3.01316 45.3125 1.71875V-4.53125C45.3125 -4.96272 44.9628 -5.3125 44.5312 -5.3125H5.46875C5.03728 -5.3125 4.6875 -4.96272 4.6875 -4.53125V34.5312C4.6875 34.9628 5.03728 35.3125 5.46875 35.3125H47.6562C48.9506 35.3125 50 36.3619 50 37.6562C50 38.9506 48.9506 40 47.6562 40H5.46875C2.44844 40 0 37.5516 0 34.5312V-4.53125ZM14.8438 10.3125C14.8438 9.01809 15.8931 7.96875 17.1875 7.96875H28.9062C30.2007 7.96875 31.25 9.01809 31.25 10.3125C31.25 11.6069 30.2007 12.6562 28.9062 12.6562H25.7812V29.0625C25.7812 30.3569 24.7319 31.4062 23.4375 31.4062C22.1431 31.4062 21.0938 30.3569 21.0938 29.0625V12.6562H17.1875C15.8931 12.6562 14.8438 11.6069 14.8438 10.3125ZM35.2366 10.5628C36.545 9.00513 38.5959 7.96875 41.4062 7.96875C44.0153 7.96875 45.9837 8.86147 47.3106 10.265C48.1997 11.2057 48.1578 12.6891 47.2172 13.5783C46.2766 14.4674 44.7931 14.4257 43.9041 13.485C43.5606 13.1218 42.8763 12.6562 41.4062 12.6562C39.8416 12.6562 39.1581 13.1824 38.8259 13.5778C38.4169 14.0645 38.2812 14.675 38.2812 15C38.2812 15.325 38.4169 15.9355 38.8259 16.4222C39.1581 16.8176 39.8416 17.3438 41.4062 17.3438C41.6428 17.3438 41.8712 17.3788 42.0862 17.444C44.1584 17.7389 45.7247 18.6641 46.7947 19.9378C48.0263 21.4041 48.4375 23.1375 48.4375 24.375C48.4375 25.6125 48.0263 27.3459 46.7947 28.8122C45.4863 30.37 43.4353 31.4062 40.625 31.4062C38.0159 31.4062 36.0475 30.5134 34.7206 29.11C33.8316 28.1694 33.8734 26.6859 34.8141 25.7966C35.7547 24.9075 37.2381 24.9494 38.1272 25.89C38.4706 26.2531 39.155 26.7188 40.625 26.7188C42.1897 26.7188 42.8731 26.1925 43.2053 25.7972C43.6144 25.3103 43.75 24.7 43.75 24.375C43.75 24.05 43.6144 23.4397 43.2053 22.9528C42.8731 22.5575 42.1897 22.0312 40.625 22.0312C40.3884 22.0312 40.16 21.9963 39.945 21.9309C37.8728 21.6359 36.3066 20.7109 35.2366 19.4372C34.005 17.9708 33.5938 16.2375 33.5938 15C33.5938 13.7625 34.005 12.0292 35.2366 10.5628Z" fill="white"/>
</g>
<defs>
<clipPath id="clip0_55_51">
<rect width="50" height="50" fill="white"/>
</clipPath>
</defs>
</svg>
