<svg width="50" height="50" viewBox="0 0 50 50" fill="none" xmlns="http://www.w3.org/2000/svg">
<path fill-rule="evenodd" clip-rule="evenodd" d="M25.0001 12.575C19.4438 12.575 15.973 15.3354 14.5834 20.8583C16.6667 18.0979 19.098 17.0625 21.8751 17.752C23.4605 18.1458 24.5938 19.2895 25.8459 20.5541C27.8897 22.6145 30.2543 25 35.4168 25C40.973 25 44.4438 22.2395 45.8334 16.7166C43.7501 19.477 41.3209 20.5125 38.5418 19.8229C36.9563 19.4291 35.823 18.2854 34.5688 17.0208C32.5272 14.9583 30.1647 12.575 25.0001 12.575ZM14.5834 25C9.02716 25 5.55633 27.7604 4.16675 33.2833C6.25008 30.5208 8.68133 29.4874 11.4584 30.177C13.0438 30.5708 14.1772 31.7145 15.4313 32.9791C17.473 35.0395 19.8376 37.425 25.0022 37.425C30.5584 37.425 34.0292 34.6645 35.4188 29.1416C33.3355 31.902 30.9043 32.9375 28.1272 32.2479C26.5418 31.8541 25.4084 30.7104 24.1563 29.4458C22.1105 27.3854 19.7459 25 14.5834 25Z" fill="white"/>
</svg>
